<svg xmlns="http://www.w3.org/2000/svg" width="430" height="144" viewBox="0 0 430 144" role="img" aria-label="Mise"><defs><linearGradient id="orange" x1="0" y1="0" x2="1" y2="1"><stop stop-color="#FF8143"/><stop offset="1" stop-color="#EE4C13"/></linearGradient><linearGradient id="mint" x1="0" y1="0" x2="1" y2="1"><stop stop-color="#B4D8C6"/><stop offset="1" stop-color="#609C84"/></linearGradient><linearGradient id="glass" x1="0" y1="0" x2="0" y2="1"><stop stop-color="#FFFDF9"/><stop offset="1" stop-color="#F6EEE5"/></linearGradient></defs><g><rect x="39" y="15" width="75" height="6" rx="3" fill="#9A8E7D" opacity=".4"/><rect x="12" y="30" width="129" height="92" rx="27" fill="url(#glass)" stroke="#FFFFFF" stroke-width="1.3"/><rect x="21" y="39" width="58" height="74" rx="18" fill="url(#orange)"/><rect x="86" y="39" width="46" height="74" rx="18" fill="url(#mint)"/><path d="M40 40H60M104 40H113" stroke="#FFFFFF" stroke-opacity=".38" stroke-width="1.4" stroke-linecap="round"/></g><path d="M172.209 110.000 L172.209 55.641 L184.961 55.641 L184.961 64.359 L185.231 64.359 Q186.945 59.924 190.944 57.237 Q194.943 54.550 200.314 54.550 Q204.100 54.550 207.129 55.837 Q210.159 57.123 212.287 59.558 Q214.416 61.994 215.398 65.502 L215.668 65.502 Q216.993 62.110 219.471 59.666 Q221.950 57.222 225.311 55.886 Q228.672 54.550 232.593 54.550 Q237.955 54.550 241.941 56.819 Q245.927 59.087 248.145 63.155 Q250.363 67.224 250.363 72.701 L250.363 110.000 L237.611 110.000 L237.611 75.840 Q237.611 72.457 236.474 70.110 Q235.337 67.764 233.177 66.533 Q231.016 65.303 227.868 65.303 Q224.785 65.303 222.441 66.715 Q220.097 68.127 218.794 70.632 Q217.492 73.136 217.492 76.419 L217.492 110.000 L205.080 110.000 L205.080 75.190 Q205.080 72.123 203.908 69.908 Q202.736 67.693 200.594 66.498 Q198.451 65.303 195.459 65.303 Q192.376 65.303 190.014 66.785 Q187.653 68.267 186.307 70.832 Q184.961 73.398 184.961 76.735 L184.961 110.000 Z " fill="#2A1D14"/><path d="M256.927 110.000 L256.927 55.641 L269.679 55.641 L269.679 110.000 Z M263.303 47.867 Q260.330 47.867 258.259 45.805 Q256.188 43.742 256.188 40.883 Q256.188 37.973 258.259 35.936 Q260.330 33.898 263.303 33.898 Q266.310 33.898 268.364 35.936 Q270.417 37.973 270.417 40.883 Q270.417 43.742 268.364 45.805 Q266.310 47.867 263.303 47.867 Z " fill="#2A1D14"/><path d="M297.722 111.090 Q290.623 111.090 285.573 108.969 Q280.523 106.848 277.664 103.048 Q274.804 99.248 274.207 94.204 L274.156 93.743 L286.681 93.743 L286.784 94.223 Q287.539 97.735 290.231 99.697 Q292.923 101.659 297.757 101.659 Q300.894 101.659 303.109 100.873 Q305.323 100.087 306.521 98.619 Q307.718 97.151 307.718 95.146 L307.718 95.095 Q307.718 92.646 306.072 91.154 Q304.427 89.663 300.204 88.681 L291.177 86.679 Q285.974 85.514 282.496 83.442 Q279.019 81.371 277.281 78.321 Q275.543 75.272 275.543 71.264 L275.543 71.213 Q275.543 66.193 278.249 62.452 Q280.954 58.712 285.868 56.631 Q290.782 54.550 297.304 54.550 Q304.074 54.550 308.893 56.797 Q313.712 59.044 316.353 62.843 Q318.994 66.641 319.204 71.329 L319.239 71.898 L307.384 71.898 L307.332 71.507 Q306.917 68.211 304.346 66.096 Q301.774 63.982 297.304 63.982 Q294.496 63.982 292.429 64.793 Q290.363 65.605 289.253 67.081 Q288.143 68.558 288.143 70.559 L288.143 70.611 Q288.143 72.145 288.900 73.379 Q289.656 74.613 291.372 75.527 Q293.088 76.442 295.897 77.095 L304.924 79.096 Q310.535 80.329 313.967 82.302 Q317.398 84.275 318.972 87.115 Q320.546 89.955 320.546 93.912 L320.546 93.963 Q320.546 99.083 317.618 102.940 Q314.691 106.796 309.537 108.943 Q304.384 111.090 297.722 111.090 Z " fill="#2A1D14"/><path d="M348.513 111.090 Q340.386 111.090 334.526 107.658 Q328.666 104.225 325.523 97.901 Q322.380 91.577 322.380 82.960 L322.380 82.909 Q322.380 74.346 325.532 67.968 Q328.684 61.590 334.417 58.070 Q340.149 54.550 347.917 54.550 Q355.684 54.550 361.329 57.949 Q366.974 61.348 370.029 67.495 Q373.084 73.642 373.084 81.835 L373.084 85.960 L328.675 85.960 L328.675 77.429 L366.986 77.429 L360.835 85.383 L360.835 80.470 Q360.835 75.144 359.207 71.597 Q357.579 68.050 354.704 66.287 Q351.828 64.524 348.060 64.524 Q344.292 64.524 341.346 66.357 Q338.401 68.190 336.720 71.754 Q335.040 75.319 335.040 80.470 L335.040 85.415 Q335.040 90.357 336.711 93.869 Q338.382 97.381 341.465 99.249 Q344.548 101.117 348.783 101.117 Q351.972 101.117 354.378 100.132 Q356.785 99.147 358.344 97.548 Q359.902 95.948 360.509 94.111 L360.631 93.748 L372.547 93.748 L372.428 94.309 Q371.778 97.428 369.963 100.421 Q368.149 103.413 365.146 105.836 Q362.142 108.258 357.985 109.674 Q353.829 111.090 348.513 111.090 Z " fill="#2A1D14"/></svg>
